# xmcd
#
# Track frame offsets:
#	150
#	8348
#	26564
#	42112
#	61797
#	74474
#	86449
#	107241
#	128340
#	138368
#	169505
#	186039
#	193301
#	207512
#	239745
#	247115
#	273344
#	295320
#	315327
#
# Disc length: 4524 seconds
#
# Revision: 5
# Processed by: cddbd v1.5.2PL0 Copyright (c) Steve Scherf et al.
# Submitted via: audiograbber 1.83.01
#
DISCID=0b11aa13
DTITLE=Schätzing, Frank - Der Schwarm
DYEAR=2006
DGENRE=Hörbuch
TTITLE0=01 Der Schwarm
TTITLE1=02 Der Schwarm
TTITLE2=03 Der Schwarm
TTITLE3=04 Der Schwarm
TTITLE4=05 Der Schwarm
TTITLE5=06 Der Schwarm
TTITLE6=07 Der Schwarm
TTITLE7=08 Der Schwarm
TTITLE8=09 Der Schwarm
TTITLE9=10 Der Schwarm
TTITLE10=11 Der Schwarm
TTITLE11=12 Der Schwarm
TTITLE12=13 Der Schwarm
TTITLE13=14 Der Schwarm
TTITLE14=15 Der Schwarm
TTITLE15=16 Der Schwarm
TTITLE16=17 Der Schwarm
TTITLE17=18 Der Schwarm
TTITLE18=19 Der Schwarm
EXTD=\n YEAR: 2006
EXTT0=
EXTT1=
EXTT2=
EXTT3=
EXTT4=
EXTT5=
EXTT6=
EXTT7=
EXTT8=
EXTT9=
EXTT10=
EXTT11=
EXTT12=
EXTT13=
EXTT14=
EXTT15=
EXTT16=
EXTT17=
EXTT18=
PLAYORDER=
